PathFileType	4	(X/Y/Z)	C:/Users/beibeiliu/ov580/test_trc/User2\sequence.11_training_dense_right.trc
DataRate	CameraRate	NumFrames	NumMarkers	Units	OrigDataRate	OrigDataStartFrame	OrigNumFrames
120	120	16	19	mm	120	275	366
Frame#	Time	ThumbCMC			ThumbMCP			ThumbIP			ThumbTip			IndexMCP			IndexPIP			IndexTip			MiddleMCP			MiddlePIP			MiddleTip			RingMCP			RingPIP			RingTip			PinkyMCP			PinkyPIP			PinkyTip			BackHand1			BackHand2			BackHand3	
		X0	Y0	Z0	X1	Y1	Z1	X2	Y2	Z2	X3	Y3	Z3	X4	Y4	Z4	X5	Y5	Z5	X6	Y6	Z6	X7	Y7	Z7	X8	Y8	Z8	X9	Y9	Z9	X10	Y10	Z10	X11	Y11	Z11	X12	Y12	Z12	X13	Y13	Z13	X14	Y14	Z14	X15	Y15	Z15	X16	Y16	Z16	X17	Y17	Z17	X18	Y18	Z18	
274	2.28333	115.731	12.0832	105.462	88.3077	22.9459	86.0452	61.2809	27.4486	55.8132	48.8587	11.3844	37.7154	132.181	-0.560789	20.1474	122.312	-3.75168	-7.86975	99.6919	-3.69127	-28.8226	136.604	-29.8526	13.2762	124.239	-36.7719	-19.2038	100.523	-38.4789	-43.6073	131.528	-56.2659	19.8438	122.522	-58.4338	-3.60812	99.4363	-61.8434	-29.5779	118.33	-79.0749	44.2953	107.207	-88.4076	16.5902	90.9547	-93.7061	-2.83189	144.928	-47.5152	78.1328	152.808	-51.9281	112.351	147.438	-16.6993	89.9245	
275	2.29167	124.003	14.082	98.787	97.6269	31.4525	77.392	75.9905	31.2085	51.4319	59.0789	22.5805	30.9729	140.17	-6.90322	20.9932	131.07	-4.56916	-12.3933	106.283	-3.93238	-34.9879	140.639	-37.5307	14.2663	129.045	-39.8723	-20.8882	106.587	-41.8584	-43.3464	131.582	-58.71	24.7397	121.314	-65.5946	-5.19882	103.726	-61.0618	-29.3166	114.367	-79.0065	39.2905	102.48	-84.0812	14.2341	87.8007	-89.9492	-5.03567	141.028	-54.0715	73.7768	151.016	-50.9765	108.964	151.422	-20.3684	89.3885	
276	2.3	131.426	14.2779	97.6865	107.519	35.2057	75.1701	84.0506	42.1822	48.7814	65.827	30.9382	27.0319	143.333	-10.8492	18.3393	133.268	-12.557	-13.1345	108.806	-6.46682	-37.4875	139.91	-38.3263	14.5892	127.097	-45.8519	-22.1846	104.32	-46.7319	-44.1574	127.201	-61.2292	18.9352	116.083	-67.2557	-8.36173	98.847	-65.8382	-28.8517	109.137	-75.6276	39.1078	94.076	-83.8069	14.8722	77.6676	-89.5796	-4.20211	138.274	-53.5605	72.883	145.659	-56.0176	109.45	153.172	-23.9385	85.0826	
277	2.30833	134.868	12.0107	89.3921	114.846	32.7906	70.7991	90.4964	44.0395	45.1077	71.3416	36.5733	31.4871	139.051	-16.75	12.8606	129.449	-13.8328	-15.62	101.799	-11.7358	-38.2379	132.223	-44.9863	12.908	119.219	-49.1814	-19.7664	89.0884	-47.5073	-45.6936	117.272	-62.4942	19.755	104.326	-71.1955	-2.7376	84.5764	-64.4053	-30.4374	96.8079	-75.3995	44.3925	77.5987	-85.2675	20.2287	61.0811	-82.5183	-0.161833	132.623	-57.0107	73.5668	144.41	-56.528	107.812	155.356	-24.291	81.9944	
278	2.31667	139.077	13.6477	87.3439	118.717	33.0846	67.2589	94.9928	46.3188	44.5818	72.4004	40.2387	27.9581	133.536	-19.2523	11.3592	119.445	-18.8481	-18.1307	95.9577	-15.0091	-34.7276	119.546	-50.2599	12.4414	106.858	-51.4749	-18.3401	79.9503	-46.7261	-41.9985	104.495	-63.2092	21.3955	88.4914	-69.8145	-0.99082	66.2113	-64.4073	-22.7671	85.2197	-73.0171	48.9022	64.2084	-80.8129	29.4702	42.2725	-78.7951	6.82212	125	-57.9471	73.7966	138.721	-60.7718	107.781	151.483	-27.8422	79.2124	
279	2.325	142.185	9.62356	86.28	124.614	34.2899	67.0655	102.614	50.3761	44.336	78.9683	46.3584	30.1286	124.326	-26.6451	11.5902	109.993	-24.5972	-17.6326	90.8083	-14.6437	-35.7345	109.674	-51.7451	14.5856	91.0015	-55.1348	-17.911	67.1859	-48.2863	-37.3852	92.9124	-62.86	25.7401	73.6123	-67.936	3.40548	51.9873	-61.8865	-15.3782	72.1224	-70.7178	54.7206	50.1572	-73.6918	35.0601	30.6901	-69.7433	13.938	118.534	-61.0976	79.7183	135.434	-59.2429	104.983	148.099	-34.6867	78.2514	
280	2.33333	146.357	6.7495	85.0501	131.767	30.1067	65.4255	107.71	45.428	38.6831	84.4568	47.3301	24.5392	120.257	-32.0572	12.834	107.092	-28.975	-19.5528	84.4973	-16.5838	-36.7617	102.403	-56.1869	12.0632	83.7223	-58.3265	-12.8508	56.3276	-48.6016	-36.535	84.4573	-62.4783	26.0708	67.1042	-65.2065	6.86923	40.3146	-57.5526	-12.2258	68.0489	-65.8787	56.678	41.4506	-68.4698	37.92	21.9009	-60.8444	18.6246	113.339	-60.7651	75.5415	129.232	-61.8739	105.852	143.809	-37.1436	75.1683	
281	2.34167	150.635	-0.340594	80.3334	139.001	25.3771	58.1195	119.042	40.5951	34.5069	97.0528	46.9971	18.9626	122.367	-37.5416	12.404	110.994	-34.9824	-19.4122	88.2007	-25.5026	-36.5205	101.89	-59.7834	15.8589	83.5452	-59.7388	-18.0512	56.1569	-51.8545	-36.2877	81.2536	-64.3903	32.4279	61.8243	-65.0276	5.64526	39.8812	-52.3593	-15.2847	64.187	-63.0724	56.1294	39.9943	-62.9169	37.9812	15.364	-56.9654	20.6284	110.549	-60.8503	77.1262	126.837	-62.0983	105.882	145.005	-42.7016	75.5379	
282	2.35	156.507	-7.02558	76.9494	150.408	19.8521	54.2901	134.235	36.5926	31.1106	111.853	42.0856	14.3255	127.135	-44.4835	6.8207	112.102	-46.2329	-19.518	91.078	-32.9047	-40.052	99.7688	-65.9213	13.2318	82.3641	-65.8871	-17.6463	59.3199	-54.6703	-40.6256	79.1926	-66.6773	26.5364	60.8474	-66.0876	5.28618	42.9109	-54.2986	-17.0017	63.0722	-61.7619	55.5574	37.1651	-59.9111	34.8876	19.6015	-52.2567	16.1622	108.575	-66.4434	78.4328	126.216	-64.3664	108.444	146.155	-50.2418	73.9996	
283	2.35833	159.135	-15.6022	76.3686	155.371	9.09106	50.5911	142.43	26.4824	25.767	122.018	31.7405	8.91719	129.728	-53.6746	10.9456	113.916	-55.1449	-21.9626	97.6957	-41.5107	-44.5831	102.527	-69.3253	15.7288	82.3596	-71.7312	-15.4754	60.8842	-61.3895	-40.4752	77.0583	-69.5933	31.0344	58.871	-68.8637	5.12253	42.1605	-58.3433	-16.2285	60.4905	-60.6005	56.9981	36.7721	-57.913	38.1159	21.9535	-49.099	17.9978	106.511	-66.8991	78.2693	119.103	-68.4772	110.277	145.102	-57.1812	77.1231	
284	2.36667	159.924	-24.3003	77.221	161.684	-0.259621	48.7678	153.856	16.7104	23.795	131.58	24.8507	0.283575	130.319	-62.1646	12.3054	118.54	-65.9452	-20.1555	102.61	-52.5053	-45.5437	101.022	-76.3385	15.6786	83.231	-79.1213	-16.7056	64.2022	-67.79	-43.4405	76.5767	-73.8594	29.1311	59.0201	-72.633	8.24582	43.4582	-60.7435	-19.9305	60.3212	-60.9537	50.6737	39.1893	-56.5966	30.3485	23.6226	-48.5663	15.0122	101.798	-69.9593	79.6598	118.127	-71.0949	112.395	140.486	-64.8969	81.0756	
285	2.375	159.843	-31.0631	74.291	161.948	-9.9944	48.0538	158.013	7.58404	19.7331	137.577	14.2536	-0.269855	129.736	-70.6399	12.608	115.519	-75.0904	-17.0489	103.736	-63.2173	-43.6075	102.417	-81.3921	17.7647	83.5276	-84.6847	-15.5689	63.8087	-75.1628	-40.4262	74.7465	-76.5997	29.2306	60.9965	-76.9459	7.71077	42.3463	-64.8385	-18.5832	56.7597	-63.4119	51.4065	38.1859	-58.5522	29.8261	23.2062	-52.0975	14.2344	104.99	-73.7983	80.349	114.611	-72.6552	108.246	141.902	-67.4408	81.9992	
286	2.38333	158.064	-33.7137	74.8426	163.287	-13.0537	47.1588	158.986	3.83006	17.808	138.965	10.2831	-2.80624	125.8	-75.7878	14.8724	116.928	-80.5836	-14.1601	103.38	-69.6877	-41.3626	96.9849	-88.013	17.7103	80.0953	-90.8435	-9.8196	65.0196	-78.3089	-41.78	74.6398	-80.9577	28.9533	59.3102	-79.4106	4.25196	46.8985	-68.1993	-18.4111	57.5191	-65.3627	54.0851	39.0015	-61.2555	31.9717	21.5867	-53.2681	10.3247	100.683	-75.2191	82.707	113.367	-73.509	112.465	141.611	-71.392	80.9896	
287	2.39167	159.512	-33.7125	78.2917	160.362	-12.7724	50.0324	155.93	2.99639	20.1382	133.846	7.80345	1.31352	124.758	-76.7873	16.3487	116.686	-80.7531	-15.4106	96.7723	-68.5094	-41.5408	99.5293	-87.2126	20.5783	79.9843	-92.328	-8.74679	61.3398	-78.5248	-41.1796	71.0653	-81.7684	33.8023	55.936	-81.0525	5.14263	38.4051	-68.8015	-19.984	53.2469	-68.2058	53.6779	33.3058	-62.865	30.9119	24.0732	-56.79	13.7587	97.3449	-79.4074	84.5148	109.182	-76.0527	111.189	139.618	-69.9732	81.7412	
288	2.4	155.834	-29.2519	80.7954	155.551	-7.9837	49.7429	144.287	8.1894	20.5953	122.846	13.6407	1.47268	118.498	-73.5408	16.0349	108.127	-77.8556	-12.8988	88.7045	-63.5772	-38.9233	92.4985	-87.858	19.3288	72.3348	-89.6664	-8.76886	56.2134	-77.8189	-35.7315	72.2683	-81.2698	35.2168	52.104	-82.1892	10.3198	37.3428	-68.6414	-16.9921	49.8636	-71.3173	55.6943	30.6382	-67.7413	39.7312	16.1812	-56.8606	13.5259	98.6449	-78.7577	86.7721	112.934	-77.7237	110.861	133.566	-68.7485	85.0528	
289	2.40833	148.247	-25.1919	80.8584	146.656	-1.07055	55.3445	135.777	18.084	27.4548	111.038	19.7555	11.9111	117.743	-66.2615	16.0732	102.265	-70.3169	-12.3799	86.1255	-57.7171	-35.0956	92.9199	-82.3328	20.6902	70.3791	-87.0674	-4.93044	47.1418	-75.4042	-31.0908	67.2612	-82.6896	34.5863	46.9676	-83.8891	12.3688	28.7807	-70.5925	-9.34892	46.5496	-75.421	58.6008	28.4447	-70.2489	38.8805	11.6945	-61.908	24.0431	94.2592	-77.9232	88.7623	109.557	-77.9775	116.257	134.049	-67.112	82.6726	
